<?xml version="1.0"?>
<svg xmlns="http://www.w3.org/2000/svg" height="512px" viewBox="0 0 512 512" width="512px"><path d="m55.175781 256h-15.101562c0-57.675781 22.457031-111.898438 63.242187-152.683594s95.007813-63.242187 152.683594-63.242187v15.101562c-110.734375 0-200.824219 90.089844-200.824219 200.824219zm0 0" fill="#d1d1d1"/><path d="m256 471.925781v-15.101562c110.734375 0 200.824219-90.089844 200.824219-200.824219h15.105469c0 57.675781-22.460938 111.898438-63.246094 152.683594s-95.007813 63.242187-152.683594 63.242187zm0 0" fill="#d1d1d1"/><path d="m41.933594 366.589844c-17.800782-34.386719-26.828125-71.59375-26.828125-110.589844 0-64.34375 25.058593-124.835938 70.558593-170.335938s105.992188-70.558593 170.335938-70.558593c47.171875 0 92.851562 13.628906 132.097656 39.417969l8.296875-12.625c-41.722656-27.410157-90.269531-41.898438-140.394531-41.898438-68.375 0-132.664062 26.628906-181.015625 74.984375-48.355469 48.351563-74.984375 112.640625-74.984375 181.015625 0 40.851562 9.863281 81.496094 28.519531 117.535156 18.054688 34.867188 44.363281 65.613282 76.082031 88.914063l8.945313-12.171875c-29.859375-21.933594-54.621094-50.871094-71.613281-83.6875zm0 0" fill="#d1d1d1"/><path d="m418.042969 57.808594-9.566407 11.6875c56.191407 45.996094 88.417969 113.976562 88.417969 186.503906 0 64.339844-25.058593 124.835938-70.558593 170.335938s-105.992188 70.558593-170.335938 70.558593c-41.542969 0-82.496094-10.746093-118.433594-31.078125l-7.4375 13.148438c38.203125 21.609375 81.726563 33.035156 125.871094 33.035156 68.375 0 132.664062-26.628906 181.015625-74.984375 48.355469-48.351563 74.984375-112.640625 74.984375-181.015625 0-77.074219-34.246094-149.3125-93.957031-198.191406zm0 0" fill="#d1d1d1"/><path d="m304.085938 232.417969c-26.257813 0-47.625 21.363281-47.625 47.625s21.367187 47.625 47.625 47.625c26.261718 0 47.625-21.363281 47.625-47.625v-179.457031l-135.320313 54.128906v170.726562c-8.519531-7.976562-19.957031-12.878906-32.519531-12.878906-26.261719 0-47.625 21.363281-47.625 47.625s21.363281 47.625 47.625 47.625c26.261718 0 47.625-21.363281 47.625-47.625v-195.246094l105.109375-42.046875v122.402344c-8.519531-7.980469-19.953125-12.878906-32.519531-12.878906zm-120.214844 160.289062c-17.933594 0-32.519532-14.589843-32.519532-32.519531 0-17.933594 14.585938-32.519531 32.519532-32.519531 17.929687 0 32.519531 14.585937 32.519531 32.519531 0 17.929688-14.589844 32.519531-32.519531 32.519531zm120.214844-80.144531c-17.929688 0-32.519532-14.585938-32.519532-32.519531 0-17.929688 14.589844-32.519531 32.519532-32.519531 17.933593 0 32.519531 14.589843 32.519531 32.519531 0 17.933593-14.585938 32.519531-32.519531 32.519531zm0 0" fill="#d1d1d1"/><path d="m39.609375 272.492188h16.03125v15.101562h-16.03125zm0 0" fill="#d1d1d1"/><path d="m456.359375 224.40625h16.03125v15.101562h-16.03125zm0 0" fill="#d1d1d1"/><path d="m424.304688 224.40625h16.027343v15.101562h-16.027343zm0 0" fill="#d1d1d1"/><path d="m71.667969 272.492188h16.027343v15.101562h-16.027343zm0 0" fill="#d1d1d1"/></svg>
